<?xml version="1.0" encoding="UTF-8" standalone="no"?>
<svg
   xmlns:dc="http://purl.org/dc/elements/1.1/"
   xmlns:cc="http://creativecommons.org/ns#"
   xmlns:rdf="http://www.w3.org/1999/02/22-rdf-syntax-ns#"
   xmlns:svg="http://www.w3.org/2000/svg"
   xmlns="http://www.w3.org/2000/svg"
   version="1.1"
   id="svg2"
   viewBox="0 0 200 200"
   height="200"
   width="200">
  <defs
     id="defs4" />
  <metadata
     id="metadata7">
    <rdf:RDF>
      <cc:Work
         rdf:about="">
        <dc:format>image/svg+xml</dc:format>
        <dc:type
           rdf:resource="http://purl.org/dc/dcmitype/StillImage" />
        <dc:title></dc:title>
      </cc:Work>
    </rdf:RDF>
  </metadata>
  <g
     transform="translate(0,-852.36216)"
     id="layer1">
    <path
       transform="translate(0,852.36216)"
       id="path4136"
       d="M 100 0 A 100 100 0 0 0 0 100 A 100 100 0 0 0 100 200 A 100 100 0 0 0 200 100 A 100 100 0 0 0 100 0 z M 100 6.1738281 A 91.975304 93.827156 0 0 1 191.97461 100 A 91.975304 93.827156 0 0 1 100 193.82812 A 91.975304 93.827156 0 0 1 8.0253906 100 A 91.975304 93.827156 0 0 1 100 6.1738281 z "
       style="opacity:1;fill:#82d5d5;fill-opacity:1;stroke:#00ff00;stroke-width:0;stroke-linecap:square;stroke-linejoin:miter;stroke-miterlimit:4;stroke-dasharray:none;stroke-opacity:1" />
  </g>
</svg>
