<?xml version="1.0" encoding="UTF-8" standalone="no"?>
<svg
   xmlns:dc="http://purl.org/dc/elements/1.1/"
   xmlns:cc="http://creativecommons.org/ns#"
   xmlns:rdf="http://www.w3.org/1999/02/22-rdf-syntax-ns#"
   xmlns:svg="http://www.w3.org/2000/svg"
   xmlns="http://www.w3.org/2000/svg"
   xmlns:sodipodi="http://sodipodi.sourceforge.net/DTD/sodipodi-0.dtd"
   xmlns:inkscape="http://www.inkscape.org/namespaces/inkscape"
   enable-background="new 0 0 32 32"
   height="32px"
   id="Layer_1"
   version="1.0"
   viewBox="0 0 32 32"
   width="32px"
   xml:space="preserve"
   inkscape:version="0.91 r13725"
   sodipodi:docname="niconico-black.svg"><metadata
     id="metadata4555"><rdf:RDF><cc:Work
         rdf:about=""><dc:format>image/svg+xml</dc:format><dc:type
           rdf:resource="http://purl.org/dc/dcmitype/StillImage" /><dc:title></dc:title></cc:Work></rdf:RDF></metadata><defs
     id="defs4553"><clipPath
       clipPathUnits="userSpaceOnUse"
       id="clipPath16"><path
         d="M 60,512 C 27,512 0,485 0,452 L 0,452 0,60 C 0,27 27,0 60,0 L 60,0 269.284,0 357.865,0 452,0 c 33,0 60,27 60,60 l 0,0 0,392 c 0,33 -27,60 -60,60 l 0,0 -392,0 z"
         id="path18" /></clipPath></defs><sodipodi:namedview
     pagecolor="#ffffff"
     bordercolor="#666666"
     borderopacity="1"
     objecttolerance="10"
     gridtolerance="10"
     guidetolerance="10"
     inkscape:pageopacity="0"
     inkscape:pageshadow="2"
     inkscape:window-width="1264"
     inkscape:window-height="791"
     id="namedview4551"
     showgrid="false"
     inkscape:zoom="16.841032"
     inkscape:cx="16"
     inkscape:cy="17.338605"
     inkscape:window-x="0"
     inkscape:window-y="0"
     inkscape:window-maximized="0"
     inkscape:current-layer="Layer_1" /><path
     style="fill:#000000;fill-opacity:1"
     d="M 2,0 C 0.896,0 0,0.896 0,2 l 0,28 c 0,1.104 0.896,2 2,2 l 28,0 c 1.104,0 2,-0.896 2,-2 L 32,2 C 32,0.896 31.104,0 30,0 L 2,0 Z"
     id="path9762" /><g
     id="g4539" /><g
     id="g4541" /><g
     id="g4543" /><g
     id="g4545" /><g
     id="g4547" /><g
     id="g4549" /><g
     inkscape:groupmode="layer"
     id="layer1"
     inkscape:label="Layer 1"
     style="display:inline" /><g
     id="g14"
     clip-path="url(#clipPath16)"
     transform="matrix(1.4144815,0,0,-1.6093181,-337.55062,413.52361)"
     style="fill:#ffffff"><g
       id="g22"
       transform="matrix(0.04905098,0,0,0.04706869,255.22271,250.46164)"
       style="fill:#ffffff"><path
         inkscape:connector-curvature="0"
         d="M 0,0 -86.99,0 -36.433,50.268 -48.995,62.718 -107.681,4.342 -166.195,62.497 -178.813,49.99 -128.519,0 -214.99,0 c -12.676,0 -22.967,-10.215 -22.967,-22.791 l 0,-137.07 c 0,-12.649 10.291,-22.838 22.967,-22.838 l 27.142,0 14.839,-23.897 c 1.481,-2.181 3.196,-2.629 4.805,-2.629 1.619,0 3.485,0.7 4.728,2.629 l 14.829,23.897 79.428,0 14.82,-23.897 c 1.466,-2.181 3.213,-2.629 4.814,-2.629 1.609,0 3.481,0.7 4.724,2.629 l 14.833,23.897 30.028,0 c 12.729,0 22.996,10.189 22.996,22.838 l 0,137.07 C 22.996,-10.215 12.729,0 0,0"
         style="fill:#ffffff;fill-opacity:1;fill-rule:nonzero;stroke:none"
         id="path24" /></g></g></svg>