<?xml version="1.0" encoding="UTF-8" standalone="no"?>
<svg
   xmlns:dc="http://purl.org/dc/elements/1.1/"
   xmlns:cc="http://creativecommons.org/ns#"
   xmlns:rdf="http://www.w3.org/1999/02/22-rdf-syntax-ns#"
   xmlns:svg="http://www.w3.org/2000/svg"
   xmlns="http://www.w3.org/2000/svg"
   xmlns:sodipodi="http://sodipodi.sourceforge.net/DTD/sodipodi-0.dtd"
   xmlns:inkscape="http://www.inkscape.org/namespaces/inkscape"
   enable-background="new 0 0 32 32"
   height="32px"
   id="Layer_1"
   version="1.0"
   viewBox="0 0 32 32"
   width="32px"
   xml:space="preserve"
   inkscape:version="0.91 r13725"
   sodipodi:docname="youtube-red-soon.svg"><metadata
     id="metadata4555"><rdf:RDF><cc:Work
         rdf:about=""><dc:format>image/svg+xml</dc:format><dc:type
           rdf:resource="http://purl.org/dc/dcmitype/StillImage" /><dc:title /></cc:Work></rdf:RDF></metadata><defs
     id="defs4553" /><sodipodi:namedview
     pagecolor="#ffffff"
     bordercolor="#666666"
     borderopacity="1"
     objecttolerance="10"
     gridtolerance="10"
     guidetolerance="10"
     inkscape:pageopacity="0"
     inkscape:pageshadow="2"
     inkscape:window-width="1440"
     inkscape:window-height="846"
     id="namedview4551"
     showgrid="false"
     inkscape:zoom="19.96875"
     inkscape:cx="16"
     inkscape:cy="16"
     inkscape:window-x="0"
     inkscape:window-y="0"
     inkscape:window-maximized="0"
     inkscape:current-layer="Layer_1" /><path
     style="fill:#962f2f;fill-opacity:1"
     d="M 2 0 C 0.896 0 0 0.896 0 2 L 0 30 C 0 31.104 0.896 32 2 32 L 30 32 C 31.104 32 32 31.104 32 30 L 32 2 C 32 0.896 31.104 0 30 0 L 2 0 z M 9.5019531 7.40625 L 17.041016 11.703125 L 24.580078 16 L 17.041016 20.296875 L 9.5019531 24.59375 L 9.5019531 16 L 9.5019531 7.40625 z "
     id="path4535" /><g
     id="g4539" /><g
     id="g4541" /><g
     id="g4543" /><g
     id="g4545" /><g
     id="g4547" /><g
     id="g4549" /><g
     transform="matrix(1.1946621,0,0,1.2718793,-4.8127871,2.0676222)"
     style="font-style:normal;font-variant:normal;font-weight:normal;font-stretch:normal;font-size:1.25px;line-height:125%;font-family:'.Times LT MM';-inkscape-font-specification:'.Times LT MM';letter-spacing:0px;word-spacing:0px;fill:#ffffff;fill-opacity:1;stroke:#000000;stroke-width:0.1;stroke-linecap:butt;stroke-linejoin:miter;stroke-miterlimit:4;stroke-dasharray:none;stroke-opacity:1"
     id="flowRoot4139"><path
       d="m 8.7653809,8.3322917 c -0.19375,0.1875 -0.64375,0.63125 -1.4125,0.63125 -0.7875,0 -1.53125,-0.54375 -1.53125,-1.86875 0,-0.9 0.275,-1.3 0.51875,-1.5375 0.2625,-0.25625 0.625,-0.38125 0.9375,-0.38125 0.76875,0 1.21875,0.5 1.375,1.15625 l 0.14375,0 c -0.01875,-0.46875 -0.0375,-0.9375 -0.05625,-1.40625 l -0.13125,0 c -0.05,0.20625 -0.25625,0.20625 -0.2875,0.20625 -0.04375,0 -0.125,-0.025 -0.225,-0.05625 -0.2,-0.0625 -0.50625,-0.15 -0.875,-0.15 -1.075,0 -2.125,0.75625 -2.125,2.15625 0,1.55625 1.08125,2.15625 2.0875,2.15625 1.15,0 1.6875,-0.78125 1.69375,-0.79375 l -0.1125,-0.1125 z"
       style="font-style:normal;font-variant:normal;font-weight:normal;font-stretch:normal;font-size:6.25px;font-family:'.Times LT MM';-inkscape-font-specification:'.Times LT MM';text-align:center;text-anchor:middle;fill:#ffffff;stroke:#000000;stroke-width:0.1;stroke-miterlimit:4;stroke-dasharray:none;stroke-opacity:1"
       id="path4145" /><path
       d="m 12.021729,7.7260417 c 0,-0.90625 -0.5875,-1.45 -1.40625,-1.45 -0.8375005,0 -1.3500005,0.68125 -1.3500005,1.45 0,0.84375 0.5625,1.4875 1.3687505,1.4875 0.95,0 1.3875,-0.86875 1.3875,-1.4875 z m -0.5625,0.18125 c 0,0.89375 -0.41875,1.13125 -0.7375,1.13125 -0.7500005,0 -0.8937505,-1.15 -0.8937505,-1.6125 0,-0.65 0.3437505,-0.975 0.7375005,-0.975 0.575,0 0.89375,0.68125 0.89375,1.45625 z"
       style="font-style:normal;font-variant:normal;font-weight:normal;font-stretch:normal;font-size:6.25px;font-family:'.Times LT MM';-inkscape-font-specification:'.Times LT MM';text-align:center;text-anchor:middle;fill:#ffffff;stroke:#000000;stroke-width:0.1;stroke-miterlimit:4;stroke-dasharray:none;stroke-opacity:1"
       id="path4147" /><path
       d="m 13.696729,9.1510417 0,-0.09375 c -0.21875,-0.00625 -0.425,-0.01875 -0.425,-0.325 l 0,-1.7625 c 0,-0.03125 0.2875,-0.36875 0.71875,-0.36875 0.08125,0 0.15,0.0125 0.20625,0.04375 0.16875,0.0875 0.225,0.3125 0.225,0.6125 l 0,1.35625 c 0,0.40625 -0.14375,0.425 -0.425,0.44375 l 0,0.09375 1.4,0 0,-0.09375 c -0.25625,-0.00625 -0.45,-0.025 -0.45,-0.5 l 0,-1.575 c 0.1375,-0.2125 0.35,-0.38125 0.69375,-0.38125 0.1125,0 0.2,0.025 0.2625,0.0625 0.2,0.125 0.19375,0.4 0.19375,0.625 l 0,1.31875 c 0,0.4 -0.1,0.4125 -0.4125,0.45 l 0,0.09375 1.36875,0 0,-0.09375 c -0.4375,-0.05625 -0.43125,-0.16875 -0.43125,-0.38125 l 0,-1.2875 c 0,-0.45625 -0.09375,-1.1125 -0.7375,-1.1125 -0.49375,0 -0.875,0.375 -1.00625,0.525 -0.06875,-0.2625 -0.2625,-0.525 -0.66875,-0.525 -0.3375,0 -0.59375,0.2 -0.9625,0.48125 l 0,-0.46875 c -0.0125,-0.00625 -0.03125,-0.00625 -0.04375,-0.0125 -0.2875,0.10625 -0.58125,0.2 -0.875,0.28125 l 0,0.10625 c 0.05,-0.0125 0.1125,-0.025 0.2,-0.025 0.1,0 0.21875,0.00625 0.21875,0.4 l 0,1.58125 c 0,0.41875 -0.1875,0.43125 -0.4375,0.4375 l 0,0.09375 1.3875,0 z"
       style="font-style:normal;font-variant:normal;font-weight:normal;font-stretch:normal;font-size:6.25px;font-family:'.Times LT MM';-inkscape-font-specification:'.Times LT MM';text-align:center;text-anchor:middle;fill:#ffffff;stroke:#000000;stroke-width:0.1;stroke-miterlimit:4;stroke-dasharray:none;stroke-opacity:1"
       id="path4149" /><path
       d="m 18.567334,9.1510417 0,-0.09375 c -0.21875,-0.00625 -0.425,-0.01875 -0.425,-0.325 l 0,-1.7625 c 0,-0.03125 0.2875,-0.36875 0.71875,-0.36875 0.08125,0 0.15,0.0125 0.20625,0.04375 0.16875,0.0875 0.225,0.3125 0.225,0.6125 l 0,1.35625 c 0,0.40625 -0.14375,0.425 -0.425,0.44375 l 0,0.09375 1.4,0 0,-0.09375 c -0.25625,-0.00625 -0.45,-0.025 -0.45,-0.5 l 0,-1.575 c 0.1375,-0.2125 0.35,-0.38125 0.69375,-0.38125 0.1125,0 0.2,0.025 0.2625,0.0625 0.2,0.125 0.19375,0.4 0.19375,0.625 l 0,1.31875 c 0,0.4 -0.1,0.4125 -0.4125,0.45 l 0,0.09375 1.36875,0 0,-0.09375 c -0.4375,-0.05625 -0.43125,-0.16875 -0.43125,-0.38125 l 0,-1.2875 c 0,-0.45625 -0.09375,-1.1125 -0.7375,-1.1125 -0.49375,0 -0.875,0.375 -1.00625,0.525 -0.06875,-0.2625 -0.2625,-0.525 -0.66875,-0.525 -0.3375,0 -0.59375,0.2 -0.9625,0.48125 l 0,-0.46875 c -0.0125,-0.00625 -0.03125,-0.00625 -0.04375,-0.0125 -0.2875,0.10625 -0.58125,0.2 -0.875,0.28125 l 0,0.10625 c 0.05,-0.0125 0.1125,-0.025 0.2,-0.025 0.1,0 0.21875,0.00625 0.21875,0.4 l 0,1.58125 c 0,0.41875 -0.1875,0.43125 -0.4375,0.4375 l 0,0.09375 1.3875,0 z"
       style="font-style:normal;font-variant:normal;font-weight:normal;font-stretch:normal;font-size:6.25px;font-family:'.Times LT MM';-inkscape-font-specification:'.Times LT MM';text-align:center;text-anchor:middle;fill:#ffffff;stroke:#000000;stroke-width:0.1;stroke-miterlimit:4;stroke-dasharray:none;stroke-opacity:1"
       id="path4151" /><path
       d="m 23.531689,9.1510417 0,-0.09375 c -0.425,-0.025 -0.4625,-0.125 -0.4625,-0.54375 l 0,-2.21875 c -0.0063,-0.00625 -0.01875,-0.0125 -0.025,-0.01875 -0.325,0.11875 -0.64375,0.2375 -0.96875,0.34375 l 0,0.09375 c 0.08125,-0.0125 0.1625,-0.025 0.25,-0.025 0.1,0 0.21875,0.00625 0.21875,0.375 l 0,1.45 c 0,0.4875 -0.10625,0.525 -0.49375,0.54375 l 0,0.09375 1.48125,0 z m -1.09375,-3.95 c 0,0.11875 0.0875,0.31875 0.3125,0.31875 0.1875,0 0.325,-0.1375 0.325,-0.31875 0,-0.175 -0.1375,-0.31875 -0.325,-0.31875 -0.21875,0 -0.3125,0.2 -0.3125,0.31875 z"
       style="font-style:normal;font-variant:normal;font-weight:normal;font-stretch:normal;font-size:6.25px;font-family:'.Times LT MM';-inkscape-font-specification:'.Times LT MM';text-align:center;text-anchor:middle;fill:#ffffff;stroke:#000000;stroke-width:0.1;stroke-miterlimit:4;stroke-dasharray:none;stroke-opacity:1"
       id="path4153" /><path
       d="m 24.690088,6.2885417 c -0.0125,-0.00625 -0.03125,-0.00625 -0.04375,-0.0125 -0.2875,0.10625 -0.58125,0.2 -0.8625,0.28125 l 0,0.10625 c 0.025,-0.0125 0.09375,-0.025 0.18125,-0.025 0.09375,0 0.21875,0.00625 0.21875,0.4 l 0,1.55 c 0,0.36875 -0.09375,0.45 -0.3875,0.46875 l 0,0.09375 1.325,0 0,-0.09375 c -0.325,-0.01875 -0.4125,-0.11875 -0.4125,-0.325 l 0,-1.75625 c 0.2375,-0.23125 0.43125,-0.35625 0.61875,-0.35625 0.3625,0 0.48125,0.225 0.48125,0.60625 l 0,1.30625 0,0 c 0,0.475 -0.1625,0.50625 -0.39375,0.525 l 0,0.09375 1.3,0 0,-0.09375 c -0.30625,-0.025 -0.38125,-0.1125 -0.38125,-0.4125 l 0,-1.43125 c 0,-0.76875 -0.44375,-0.9375 -0.73125,-0.9375 -0.36875,0 -0.60625,0.21875 -0.9125,0.50625 l 0,-0.49375 z"
       style="font-style:normal;font-variant:normal;font-weight:normal;font-stretch:normal;font-size:6.25px;font-family:'.Times LT MM';-inkscape-font-specification:'.Times LT MM';text-align:center;text-anchor:middle;fill:#ffffff;stroke:#000000;stroke-width:0.1;stroke-miterlimit:4;stroke-dasharray:none;stroke-opacity:1"
       id="path4155" /><path
       d="m 29.746338,6.4822917 -0.48125,0 c -0.31875,0 -0.675,-0.20625 -0.95,-0.20625 -0.475,0 -1.075,0.3 -1.075,1.04375 0,0.3625 0.2125,0.65 0.58125,0.8125 l 0,0 c -0.55625,0.49375 -0.55625,0.575 -0.55625,0.68125 0,0.175 0.1625,0.25 0.33125,0.33125 l 0,0 c -0.3125,0.21875 -0.6125,0.48125 -0.6125,0.7625 0,0.3312503 0.46875,0.6062503 1.10625,0.6062503 0.5625,0 1.6,-0.35 1.6,-1.0562503 0,-0.1875 -0.0875,-0.625 -0.75625,-0.66875 -0.43125,-0.025 -1.29375,0.01875 -1.29375,-0.20625 0,-0.125 0.25,-0.38125 0.375,-0.39375 0.0375,0 0.2625,0.03125 0.3375,0.03125 0.35,0 0.99375,-0.24375 0.99375,-0.91875 0,-0.3125 -0.05625,-0.43125 -0.11875,-0.575 l 0.51875,0 0,-0.24375 z m -1,2.7625 c 0.4625,0.0125 0.76875,0.025 0.76875,0.30625 0,0.33125 -0.425,0.6062503 -1.15625,0.6062503 -0.7125,0 -0.9375,-0.2500003 -0.9375,-0.4437503 0,-0.1875 0.1125,-0.31875 0.30625,-0.55 0.29375,0.0625 0.43125,0.0625 1.01875,0.08125 z m -0.51875,-2.79375 c 0.43125,0 0.58125,0.53125 0.625,0.8375 0.0125,0.075 0.0125,0.1375 0.0125,0.175 0,0.1375 -0.03125,0.6 -0.45625,0.6 -0.3875,0 -0.575,-0.35625 -0.63125,-0.75 -0.0125,-0.1 -0.01875,-0.2 -0.01875,-0.3 0,-0.41875 0.24375,-0.5625 0.46875,-0.5625 z"
       style="font-style:normal;font-variant:normal;font-weight:normal;font-stretch:normal;font-size:6.25px;font-family:'.Times LT MM';-inkscape-font-specification:'.Times LT MM';text-align:center;text-anchor:middle;fill:#ffffff;stroke:#000000;stroke-width:0.1;stroke-miterlimit:4;stroke-dasharray:none;stroke-opacity:1"
       id="path4157" /><path
       d="m 11.850635,16.988542 0.08125,0 c 0.0375,-0.05625 0.0625,-0.075 0.1375,-0.075 0.175,-0.0062 0.44375,0.1125 0.725,0.1125 0.4,0 0.90625,-0.2625 0.90625,-0.80625 0,-0.09375 -0.0125,-0.175 -0.0375,-0.25 -0.125,-0.36875 -0.7375,-0.6375 -1.1625,-0.8875 -0.23125,-0.1375 -0.26875,-0.31875 -0.26875,-0.44375 0,-0.05625 0.0125,-0.1125 0.04375,-0.175 0.0625,-0.11875 0.2,-0.23125 0.43125,-0.23125 0.275,0 0.55625,0.13125 0.69375,0.76875 l 0.09375,0 c -0.0062,-0.2875 -0.01875,-0.56875 -0.025,-0.85625 l -0.06875,0 c -0.01875,0.025 -0.05,0.06875 -0.10625,0.06875 -0.10625,0 -0.3,-0.125 -0.575,-0.125 -0.60625,0 -0.875,0.4125 -0.875,0.7625 0,0.6 0.59375,0.8375 1.09375,1.11875 0.2,0.1125 0.325,0.2625 0.325,0.4625 0,0.11875 -0.03125,0.20625 -0.08125,0.275 -0.1,0.1375 -0.28125,0.18125 -0.425,0.18125 -0.6125,0 -0.73125,-0.54375 -0.80625,-0.875 l -0.1,0 0,0.975 z"
       style="font-style:normal;font-variant:normal;font-weight:normal;font-stretch:normal;font-size:6.25px;font-family:'.Times LT MM';-inkscape-font-specification:'.Times LT MM';text-align:center;text-anchor:middle;fill:#ffffff;stroke:#000000;stroke-width:0.1;stroke-miterlimit:4;stroke-dasharray:none;stroke-opacity:1"
       id="path4159" /><path
       d="m 16.892334,15.538542 c 0,-0.90625 -0.5875,-1.45 -1.40625,-1.45 -0.8375,0 -1.35,0.68125 -1.35,1.45 0,0.84375 0.5625,1.4875 1.36875,1.4875 0.95,0 1.3875,-0.86875 1.3875,-1.4875 z m -0.5625,0.18125 c 0,0.89375 -0.41875,1.13125 -0.7375,1.13125 -0.75,0 -0.89375,-1.15 -0.89375,-1.6125 0,-0.65 0.34375,-0.975 0.7375,-0.975 0.575,0 0.89375,0.68125 0.89375,1.45625 z"
       style="font-style:normal;font-variant:normal;font-weight:normal;font-stretch:normal;font-size:6.25px;font-family:'.Times LT MM';-inkscape-font-specification:'.Times LT MM';text-align:center;text-anchor:middle;fill:#ffffff;stroke:#000000;stroke-width:0.1;stroke-miterlimit:4;stroke-dasharray:none;stroke-opacity:1"
       id="path4161" /><path
       d="m 20.017334,15.538542 c 0,-0.90625 -0.5875,-1.45 -1.40625,-1.45 -0.8375,0 -1.35,0.68125 -1.35,1.45 0,0.84375 0.5625,1.4875 1.36875,1.4875 0.95,0 1.3875,-0.86875 1.3875,-1.4875 z m -0.5625,0.18125 c 0,0.89375 -0.41875,1.13125 -0.7375,1.13125 -0.75,0 -0.89375,-1.15 -0.89375,-1.6125 0,-0.65 0.34375,-0.975 0.7375,-0.975 0.575,0 0.89375,0.68125 0.89375,1.45625 z"
       style="font-style:normal;font-variant:normal;font-weight:normal;font-stretch:normal;font-size:6.25px;font-family:'.Times LT MM';-inkscape-font-specification:'.Times LT MM';text-align:center;text-anchor:middle;fill:#ffffff;stroke:#000000;stroke-width:0.1;stroke-miterlimit:4;stroke-dasharray:none;stroke-opacity:1"
       id="path4163" /><path
       d="m 21.211084,14.101042 c -0.0125,-0.0062 -0.03125,-0.0062 -0.04375,-0.0125 -0.2875,0.10625 -0.58125,0.2 -0.8625,0.28125 l 0,0.10625 c 0.025,-0.0125 0.09375,-0.025 0.18125,-0.025 0.09375,0 0.21875,0.0063 0.21875,0.4 l 0,1.55 c 0,0.36875 -0.09375,0.45 -0.3875,0.46875 l 0,0.09375 1.325,0 0,-0.09375 c -0.325,-0.01875 -0.4125,-0.11875 -0.4125,-0.325 l 0,-1.75625 c 0.2375,-0.23125 0.43125,-0.35625 0.61875,-0.35625 0.3625,0 0.48125,0.225 0.48125,0.60625 l 0,1.30625 0,0 c 0,0.475 -0.1625,0.50625 -0.39375,0.525 l 0,0.09375 1.3,0 0,-0.09375 c -0.30625,-0.025 -0.38125,-0.1125 -0.38125,-0.4125 l 0,-1.43125 c 0,-0.76875 -0.44375,-0.9375 -0.73125,-0.9375 -0.36875,0 -0.60625,0.21875 -0.9125,0.50625 l 0,-0.49375 z"
       style="font-style:normal;font-variant:normal;font-weight:normal;font-stretch:normal;font-size:6.25px;font-family:'.Times LT MM';-inkscape-font-specification:'.Times LT MM';text-align:center;text-anchor:middle;fill:#ffffff;stroke:#000000;stroke-width:0.1;stroke-miterlimit:4;stroke-dasharray:none;stroke-opacity:1"
       id="path4165" /></g></svg>